# This file uses centimeters as units for non-parametric coordinates.

mtllib RelojCampIzq_CatDog.mtl
g default
v -0.236152 0.080006 0.000935
v -0.232500 0.071077 -0.048634
v -0.249638 0.063066 -0.044686
v -0.264089 0.056276 -0.033800
v -0.273653 0.051739 -0.017632
v -0.276873 0.050146 0.001356
v -0.273261 0.051739 0.020274
v -0.263365 0.056276 0.036241
v -0.248692 0.063066 0.046826
v -0.231476 0.071077 0.050417
v -0.214338 0.079087 0.046470
v -0.199886 0.085878 0.035584
v -0.190323 0.090416 0.019416
v -0.187102 0.092009 0.000428
v -0.190715 0.090416 -0.018490
v -0.200611 0.085878 -0.034456
v -0.215284 0.079087 -0.045040
v -0.221078 0.045650 -0.090742
v -0.252745 0.030849 -0.083449
v -0.279448 0.018302 -0.063332
v -0.297119 0.009918 -0.033459
v -0.303070 0.006973 0.001627
v -0.296394 0.009918 0.036582
v -0.278110 0.018302 0.066084
v -0.250997 0.030849 0.085644
v -0.219185 0.045650 0.092282
v -0.187519 0.060452 0.084988
v -0.160817 0.072999 0.064871
v -0.143145 0.081383 0.034998
v -0.137194 0.084327 -0.000088
v -0.143869 0.081383 -0.035043
v -0.162155 0.072999 -0.064545
v -0.189267 0.060452 -0.084105
v -0.203624 0.007596 -0.118981
v -0.244999 -0.011743 -0.109450
v -0.279887 -0.028137 -0.083168
v -0.302976 -0.039091 -0.044134
v -0.310752 -0.042938 0.001707
v -0.302030 -0.039091 0.047377
v -0.278138 -0.028137 0.085925
v -0.242715 -0.011743 0.111480
v -0.201151 0.007596 0.120152
v -0.159777 0.026934 0.110622
v -0.124889 0.043328 0.084341
v -0.101800 0.054283 0.045306
v -0.094025 0.058129 -0.000534
v -0.102746 0.054283 -0.046204
v -0.126637 0.043328 -0.084752
v -0.162061 0.026934 -0.110308
v -0.182796 -0.037292 -0.129047
v -0.227580 -0.058224 -0.118733
v -0.265341 -0.075969 -0.090285
v -0.290333 -0.087826 -0.048036
v -0.298749 -0.091990 0.001582
v -0.289309 -0.087826 0.051015
v -0.263449 -0.075969 0.092740
v -0.225107 -0.058224 0.120399
v -0.180120 -0.037292 0.129787
v -0.135336 -0.016361 0.119471
v -0.097573 0.001384 0.091025
v -0.072581 0.013241 0.048774
v -0.064165 0.017405 -0.000843
v -0.073606 0.013241 -0.050277
v -0.099465 0.001384 -0.092000
v -0.137808 -0.016361 -0.119661
vn -0.451333 0.871831 -0.190288
vn -0.451333 0.871831 -0.190288
vn -0.451333 0.871831 -0.190288
vn -0.422596 0.906308 0.004370
vn -0.530390 0.764224 -0.366945
vn -0.648000 0.708957 -0.278345
vn -0.422596 0.906308 0.004370
vn -0.648000 0.708957 -0.278345
vn -0.725836 0.672029 -0.146760
vn -0.422596 0.906308 0.004370
vn -0.725836 0.672029 -0.146760
vn -0.752049 0.659062 0.007776
vn -0.422596 0.906308 0.004370
vn -0.752049 0.659062 0.007776
vn -0.722647 0.672029 0.161737
vn -0.422596 0.906308 0.004370
vn -0.722647 0.672029 0.161737
vn -0.642106 0.708957 0.291685
vn -0.422596 0.906308 0.004370
vn -0.642106 0.708957 0.291685
vn -0.522688 0.764225 0.377833
vn -0.422596 0.906308 0.004370
vn -0.522688 0.764225 0.377833
vn -0.382575 0.829416 0.407070
vn -0.422596 0.906308 0.004370
vn -0.382575 0.829416 0.407070
vn -0.243095 0.894608 0.374942
vn -0.422596 0.906308 0.004370
vn -0.243095 0.894608 0.374942
vn -0.125485 0.949874 0.286343
vn -0.422596 0.906308 0.004370
vn -0.125485 0.949874 0.286343
vn -0.047647 0.986803 0.154759
vn -0.422596 0.906308 0.004370
vn -0.047647 0.986803 0.154759
vn -0.021434 0.999770 0.000222
vn -0.422596 0.906308 0.004370
vn -0.021434 0.999770 0.000222
vn -0.050837 0.986803 -0.153741
vn -0.422596 0.906308 0.004370
vn -0.050837 0.986803 -0.153741
vn -0.131379 0.949874 -0.283687
vn -0.422596 0.906308 0.004370
vn -0.131379 0.949874 -0.283687
vn -0.250796 0.894608 -0.369836
vn -0.422596 0.906308 0.004370
vn -0.250796 0.894608 -0.369836
vn -0.390911 0.829416 -0.399072
vn -0.549944 0.513766 -0.658488
vn -0.530390 0.764224 -0.366945
vn -0.390911 0.829416 -0.399072
vn -0.390911 0.829416 -0.399072
vn -0.301204 0.630025 -0.715783
vn -0.549944 0.513766 -0.658488
vn -0.759685 0.415206 -0.500482
vn -0.648000 0.708957 -0.278345
vn -0.530390 0.764224 -0.366945
vn -0.530390 0.764224 -0.366945
vn -0.549944 0.513766 -0.658488
vn -0.759685 0.415206 -0.500482
vn -0.898496 0.349349 -0.265819
vn -0.725836 0.672029 -0.146760
vn -0.648000 0.708957 -0.278345
vn -0.648000 0.708957 -0.278345
vn -0.759685 0.415206 -0.500482
vn -0.898496 0.349349 -0.265819
vn -0.945242 0.326224 0.009774
vn -0.752049 0.659062 0.007776
vn -0.725836 0.672029 -0.146760
vn -0.725836 0.672029 -0.146760
vn -0.898496 0.349349 -0.265819
vn -0.945242 0.326224 0.009774
vn -0.892808 0.349349 0.284340
vn -0.722647 0.672029 0.161737
vn -0.752049 0.659062 0.007776
vn -0.752049 0.659062 0.007776
vn -0.945242 0.326224 0.009774
vn -0.892808 0.349349 0.284340
vn -0.749174 0.415206 0.516084
vn -0.642106 0.708957 0.291685
vn -0.722647 0.672029 0.161737
vn -0.722647 0.672029 0.161737
vn -0.892808 0.349349 0.284340
vn -0.749174 0.415206 0.516084
vn -0.536210 0.513766 0.669719
vn -0.522688 0.764225 0.377833
vn -0.642106 0.708957 0.291685
vn -0.642106 0.708957 0.291685
vn -0.749174 0.415206 0.516084
vn -0.536210 0.513766 0.669719
vn -0.286339 0.630025 0.721858
vn -0.382575 0.829416 0.407070
vn -0.522688 0.764225 0.377833
vn -0.522688 0.764225 0.377833
vn -0.536210 0.513766 0.669719
vn -0.286339 0.630025 0.721858
vn -0.037596 0.746286 0.664563
vn -0.243095 0.894608 0.374942
vn -0.382575 0.829416 0.407070
vn -0.382575 0.829416 0.407070
vn -0.286339 0.630025 0.721858
vn -0.037596 0.746286 0.664563
vn 0.172146 0.844847 0.506556
vn -0.125485 0.949874 0.286343
vn -0.243095 0.894608 0.374942
vn -0.243095 0.894608 0.374942
vn -0.037596 0.746286 0.664563
vn 0.172146 0.844847 0.506556
vn 0.310958 0.910702 0.271894
vn -0.047647 0.986803 0.154759
vn -0.125485 0.949874 0.286343
vn -0.125485 0.949874 0.286343
vn 0.172146 0.844847 0.506556
vn 0.310958 0.910702 0.271894
vn 0.357702 0.933829 -0.003699
vn -0.021434 0.999770 0.000222
vn -0.047647 0.986803 0.154759
vn -0.047647 0.986803 0.154759
vn 0.310958 0.910702 0.271894
vn 0.357702 0.933829 -0.003699
vn 0.305269 0.910702 -0.278266
vn -0.050837 0.986803 -0.153741
vn -0.021434 0.999770 0.000222
vn -0.021434 0.999770 0.000222
vn 0.357702 0.933829 -0.003699
vn 0.305269 0.910702 -0.278266
vn 0.161635 0.844847 -0.510007
vn -0.131379 0.949874 -0.283687
vn -0.050837 0.986803 -0.153741
vn -0.050837 0.986803 -0.153741
vn 0.305269 0.910702 -0.278266
vn 0.161635 0.844847 -0.510007
vn -0.051329 0.746286 -0.663644
vn -0.250796 0.894608 -0.369836
vn -0.131379 0.949874 -0.283687
vn -0.131379 0.949874 -0.283687
vn 0.161635 0.844847 -0.510007
vn -0.051329 0.746286 -0.663644
vn -0.301204 0.630025 -0.715783
vn -0.390911 0.829416 -0.399072
vn -0.250796 0.894608 -0.369836
vn -0.250796 0.894608 -0.369836
vn -0.051329 0.746286 -0.663644
vn -0.301204 0.630025 -0.715783
vn -0.488653 0.189323 -0.851690
vn -0.549944 0.513766 -0.658488
vn -0.301204 0.630025 -0.715783
vn -0.301204 0.630025 -0.715783
vn -0.167794 0.339291 -0.925596
vn -0.488653 0.189323 -0.851690
vn -0.759206 0.062186 -0.647873
vn -0.759685 0.415206 -0.500482
vn -0.549944 0.513766 -0.658488
vn -0.549944 0.513766 -0.658488
vn -0.488653 0.189323 -0.851690
vn -0.759206 0.062186 -0.647873
vn -0.938263 -0.022763 -0.345173
vn -0.898496 0.349349 -0.265819
vn -0.759685 0.415206 -0.500482
vn -0.759685 0.415206 -0.500482
vn -0.759206 0.062186 -0.647873
vn -0.938263 -0.022763 -0.345173
vn -0.998563 -0.052593 0.010325
vn -0.945242 0.326224 0.009774
vn -0.898496 0.349349 -0.265819
vn -0.898496 0.349349 -0.265819
vn -0.938263 -0.022763 -0.345173
vn -0.998563 -0.052593 0.010325
vn -0.930925 -0.022763 0.364500
vn -0.892808 0.349349 0.284340
vn -0.945242 0.326224 0.009774
vn -0.945242 0.326224 0.009774
vn -0.998563 -0.052593 0.010325
vn -0.930925 -0.022763 0.364500
vn -0.745650 0.062186 0.663430
vn -0.749174 0.415206 0.516084
vn -0.892808 0.349349 0.284340
vn -0.892808 0.349349 0.284340
vn -0.930925 -0.022763 0.364500
vn -0.745650 0.062186 0.663430
vn -0.470940 0.189323 0.861610
vn -0.536210 0.513766 0.669719
vn -0.749174 0.415206 0.516084
vn -0.749174 0.415206 0.516084
vn -0.745650 0.062186 0.663430
vn -0.470940 0.189323 0.861610
vn -0.148619 0.339291 0.928867
vn -0.286339 0.630025 0.721858
vn -0.536210 0.513766 0.669719
vn -0.536210 0.513766 0.669719
vn -0.470940 0.189323 0.861610
vn -0.148619 0.339291 0.928867
vn 0.172243 0.489260 0.854960
vn -0.037596 0.746286 0.664563
vn -0.286339 0.630025 0.721858
vn -0.286339 0.630025 0.721858
vn -0.148619 0.339291 0.928867
vn 0.172243 0.489260 0.854960
vn 0.442795 0.616395 0.651145
vn 0.172146 0.844847 0.506556
vn -0.037596 0.746286 0.664563
vn -0.037596 0.746286 0.664563
vn 0.172243 0.489260 0.854960
vn 0.442795 0.616395 0.651145
vn 0.621852 0.701347 0.348443
vn 0.310958 0.910702 0.271894
vn 0.172146 0.844847 0.506556
vn 0.172146 0.844847 0.506556
vn 0.442795 0.616395 0.651145
vn 0.621852 0.701347 0.348443
vn 0.682150 0.731178 -0.007053
vn 0.357702 0.933829 -0.003699
vn 0.310958 0.910702 0.271894
vn 0.310958 0.910702 0.271894
vn 0.621852 0.701347 0.348443
vn 0.682150 0.731178 -0.007053
vn 0.614514 0.701347 -0.361227
vn 0.305269 0.910702 -0.278266
vn 0.357702 0.933829 -0.003699
vn 0.357702 0.933829 -0.003699
vn 0.682150 0.731178 -0.007053
vn 0.614514 0.701347 -0.361227
vn 0.429236 0.616395 -0.660161
vn 0.161635 0.844847 -0.510007
vn 0.305269 0.910702 -0.278266
vn 0.305269 0.910702 -0.278266
vn 0.614514 0.701347 -0.361227
vn 0.429236 0.616395 -0.660161
vn 0.154528 0.489260 -0.858339
vn -0.051329 0.746286 -0.663644
vn 0.161635 0.844847 -0.510007
vn 0.161635 0.844847 -0.510007
vn 0.429236 0.616395 -0.660161
vn 0.154528 0.489260 -0.858339
vn -0.167794 0.339291 -0.925596
vn -0.301204 0.630025 -0.715783
vn -0.051329 0.746286 -0.663644
vn -0.051329 0.746286 -0.663644
vn 0.154528 0.489260 -0.858339
vn -0.167794 0.339291 -0.925596
vn -0.431958 0.018190 -0.901710
vn -0.488653 0.189323 -0.851690
vn -0.167794 0.339291 -0.925596
vn -0.167794 0.339291 -0.925596
vn -0.092585 0.176811 -0.979881
vn -0.431958 0.018190 -0.901710
vn -0.718123 -0.116283 -0.686132
vn -0.759206 0.062186 -0.647873
vn -0.488653 0.189323 -0.851690
vn -0.488653 0.189323 -0.851690
vn -0.431958 0.018190 -0.901710
vn -0.718123 -0.116283 -0.686132
vn -0.907511 -0.206135 -0.365968
vn -0.938263 -0.022763 -0.345173
vn -0.759206 0.062186 -0.647873
vn -0.759206 0.062186 -0.647873
vn -0.718123 -0.116283 -0.686132
vn -0.907511 -0.206135 -0.365968
vn -0.971290 -0.237686 0.010043
vn -0.998563 -0.052593 0.010325
vn -0.938263 -0.022763 -0.345173
vn -0.938263 -0.022763 -0.345173
vn -0.907511 -0.206135 -0.365968
vn -0.971290 -0.237686 0.010043
vn -0.899750 -0.206135 0.384655
vn -0.930925 -0.022763 0.364500
vn -0.998563 -0.052593 0.010325
vn -0.998563 -0.052593 0.010325
vn -0.971290 -0.237686 0.010043
vn -0.899750 -0.206135 0.384655
vn -0.703783 -0.116283 0.700834
vn -0.745650 0.062186 0.663430
vn -0.930925 -0.022763 0.364500
vn -0.930925 -0.022763 0.364500
vn -0.899750 -0.206135 0.384655
vn -0.703783 -0.116283 0.700834
vn -0.413224 0.018190 0.910448
vn -0.470940 0.189323 0.861610
vn -0.745650 0.062186 0.663430
vn -0.745650 0.062186 0.663430
vn -0.703783 -0.116283 0.700834
vn -0.413224 0.018190 0.910448
vn -0.072304 0.176811 0.981586
vn -0.148619 0.339291 0.928867
vn -0.470940 0.189323 0.861610
vn -0.470940 0.189323 0.861610
vn -0.413224 0.018190 0.910448
vn -0.072304 0.176811 0.981586
vn 0.267071 0.335433 0.903415
vn 0.172243 0.489260 0.854960
vn -0.148619 0.339291 0.928867
vn -0.148619 0.339291 0.928867
vn -0.072304 0.176811 0.981586
vn 0.267071 0.335433 0.903415
vn 0.553236 0.469906 0.687836
vn 0.442795 0.616395 0.651145
vn 0.172243 0.489260 0.854960
vn 0.172243 0.489260 0.854960
vn 0.267071 0.335433 0.903415
vn 0.553236 0.469906 0.687836
vn 0.742623 0.559757 0.367673
vn 0.621852 0.701347 0.348443
vn 0.442795 0.616395 0.651145
vn 0.442795 0.616395 0.651145
vn 0.553236 0.469906 0.687836
vn 0.742623 0.559757 0.367673
vn 0.806402 0.591309 -0.008338
vn 0.682150 0.731178 -0.007053
vn 0.621852 0.701347 0.348443
vn 0.621852 0.701347 0.348443
vn 0.742623 0.559757 0.367673
vn 0.806402 0.591309 -0.008338
vn 0.734862 0.559757 -0.382949
vn 0.614514 0.701347 -0.361227
vn 0.682150 0.731178 -0.007053
vn 0.682150 0.731178 -0.007053
vn 0.806402 0.591309 -0.008338
vn 0.734862 0.559757 -0.382949
vn 0.538895 0.469906 -0.699128
vn 0.429236 0.616395 -0.660161
vn 0.614514 0.701347 -0.361227
vn 0.614514 0.701347 -0.361227
vn 0.734862 0.559757 -0.382949
vn 0.538895 0.469906 -0.699128
vn 0.248333 0.335433 -0.908744
vn 0.154528 0.489260 -0.858339
vn 0.429236 0.616395 -0.660161
vn 0.429236 0.616395 -0.660161
vn 0.538895 0.469906 -0.699128
vn 0.248333 0.335433 -0.908744
vn -0.092585 0.176811 -0.979881
vn -0.167794 0.339291 -0.925596
vn 0.154528 0.489260 -0.858339
vn 0.154528 0.489260 -0.858339
vn 0.248333 0.335433 -0.908744
vn -0.092585 0.176811 -0.979881
s off
g polySurface1316 polySurface1313
usemtl prueba_segundo_piso:lambert16SG
f 1//1 2//2 3//3
f 1//4 3//5 4//6
f 1//7 4//8 5//9
f 1//10 5//11 6//12
f 1//13 6//14 7//15
f 1//16 7//17 8//18
f 1//19 8//20 9//21
f 1//22 9//23 10//24
f 1//25 10//26 11//27
f 1//28 11//29 12//30
f 1//31 12//32 13//33
f 1//34 13//35 14//36
f 1//37 14//38 15//39
f 1//40 15//41 16//42
f 1//43 16//44 17//45
f 1//46 17//47 2//48
f 19//49 3//50 2//51
f 2//52 18//53 19//54
f 20//55 4//56 3//57
f 3//58 19//59 20//60
f 21//61 5//62 4//63
f 4//64 20//65 21//66
f 22//67 6//68 5//69
f 5//70 21//71 22//72
f 23//73 7//74 6//75
f 6//76 22//77 23//78
f 24//79 8//80 7//81
f 7//82 23//83 24//84
f 25//85 9//86 8//87
f 8//88 24//89 25//90
f 26//91 10//92 9//93
f 9//94 25//95 26//96
f 27//97 11//98 10//99
f 10//100 26//101 27//102
f 28//103 12//104 11//105
f 11//106 27//107 28//108
f 29//109 13//110 12//111
f 12//112 28//113 29//114
f 30//115 14//116 13//117
f 13//118 29//119 30//120
f 31//121 15//122 14//123
f 14//124 30//125 31//126
f 32//127 16//128 15//129
f 15//130 31//131 32//132
f 33//133 17//134 16//135
f 16//136 32//137 33//138
f 18//139 2//140 17//141
f 17//142 33//143 18//144
f 35//145 19//146 18//147
f 18//148 34//149 35//150
f 36//151 20//152 19//153
f 19//154 35//155 36//156
f 37//157 21//158 20//159
f 20//160 36//161 37//162
f 38//163 22//164 21//165
f 21//166 37//167 38//168
f 39//169 23//170 22//171
f 22//172 38//173 39//174
f 40//175 24//176 23//177
f 23//178 39//179 40//180
f 41//181 25//182 24//183
f 24//184 40//185 41//186
f 42//187 26//188 25//189
f 25//190 41//191 42//192
f 43//193 27//194 26//195
f 26//196 42//197 43//198
f 44//199 28//200 27//201
f 27//202 43//203 44//204
f 45//205 29//206 28//207
f 28//208 44//209 45//210
f 46//211 30//212 29//213
f 29//214 45//215 46//216
f 47//217 31//218 30//219
f 30//220 46//221 47//222
f 48//223 32//224 31//225
f 31//226 47//227 48//228
f 49//229 33//230 32//231
f 32//232 48//233 49//234
f 34//235 18//236 33//237
f 33//238 49//239 34//240
f 51//241 35//242 34//243
f 34//244 50//245 51//246
f 52//247 36//248 35//249
f 35//250 51//251 52//252
f 53//253 37//254 36//255
f 36//256 52//257 53//258
f 54//259 38//260 37//261
f 37//262 53//263 54//264
f 55//265 39//266 38//267
f 38//268 54//269 55//270
f 56//271 40//272 39//273
f 39//274 55//275 56//276
f 57//277 41//278 40//279
f 40//280 56//281 57//282
f 58//283 42//284 41//285
f 41//286 57//287 58//288
f 59//289 43//290 42//291
f 42//292 58//293 59//294
f 60//295 44//296 43//297
f 43//298 59//299 60//300
f 61//301 45//302 44//303
f 44//304 60//305 61//306
f 62//307 46//308 45//309
f 45//310 61//311 62//312
f 63//313 47//314 46//315
f 46//316 62//317 63//318
f 64//319 48//320 47//321
f 47//322 63//323 64//324
f 65//325 49//326 48//327
f 48//328 64//329 65//330
f 50//331 34//332 49//333
f 49//334 65//335 50//336
