# This file uses centimeters as units for non-parametric coordinates.

mtllib RelojCampDer_CatDog.mtl
g default
v 0.233095 0.080006 -0.003917
v 0.228419 0.071077 -0.053400
v 0.245636 0.063066 -0.049807
v 0.260309 0.056276 -0.039222
v 0.270204 0.051739 -0.023255
v 0.273818 0.050146 -0.004338
v 0.270596 0.051739 0.014651
v 0.261033 0.056276 0.030819
v 0.246582 0.063066 0.041704
v 0.229444 0.071077 0.045651
v 0.212228 0.079087 0.042059
v 0.197555 0.085878 0.031475
v 0.187658 0.090416 0.015508
v 0.184046 0.092009 -0.003409
v 0.187267 0.090416 -0.022398
v 0.196831 0.085878 -0.038566
v 0.211281 0.079087 -0.049452
v 0.216129 0.045650 -0.095264
v 0.247940 0.030849 -0.088626
v 0.275053 0.018301 -0.069066
v 0.293338 0.009917 -0.039564
v 0.300014 0.006973 -0.004609
v 0.294062 0.009918 0.030477
v 0.276391 0.018302 0.060351
v 0.249688 0.030849 0.080468
v 0.218021 0.045650 0.087761
v 0.186211 0.060452 0.081124
v 0.159098 0.072999 0.061564
v 0.140813 0.081383 0.032061
v 0.134137 0.084327 -0.002894
v 0.140089 0.081383 -0.037979
v 0.157760 0.072999 -0.067854
v 0.184463 0.060452 -0.087969
v 0.198095 0.007596 -0.123134
v 0.239659 -0.011743 -0.114462
v 0.275082 -0.028137 -0.088906
v 0.298974 -0.039091 -0.050358
v 0.307695 -0.042938 -0.004688
v 0.299920 -0.039091 0.041153
v 0.276830 -0.028137 0.080187
v 0.241943 -0.011742 0.106469
v 0.200567 0.007596 0.115998
v 0.159004 0.026934 0.107326
v 0.123581 0.043328 0.081771
v 0.099689 0.054283 0.043223
v 0.090968 0.058129 -0.002447
v 0.098743 0.054283 -0.048288
v 0.121833 0.043328 -0.087322
v 0.156720 0.026934 -0.113604
v 0.177063 -0.037292 -0.132768
v 0.222050 -0.058224 -0.123382
v 0.260393 -0.075969 -0.095721
v 0.286252 -0.087826 -0.053998
v 0.295693 -0.091990 -0.004564
v 0.287276 -0.087826 0.045053
v 0.262285 -0.075969 0.087304
v 0.224523 -0.058224 0.115750
v 0.179739 -0.037292 0.126066
v 0.134752 -0.016361 0.116678
v 0.096409 0.001384 0.089019
v 0.070549 0.013241 0.047294
v 0.061108 0.017405 -0.002138
v 0.069525 0.013241 -0.051757
v 0.094516 0.001384 -0.094006
v 0.132279 -0.016361 -0.122453
vt 0.726575 0.593850
vt 0.689054 0.689054
vt 0.648511 0.722262
vt 0.636224 0.703873
vt 0.636224 0.703873
vt 0.673413 0.673413
vt 0.689054 0.689054
vt 0.602315 0.747011
vt 0.593850 0.726575
vt 0.636224 0.703873
vt 0.636224 0.703873
vt 0.648511 0.722262
vt 0.602315 0.747011
vt 0.593850 0.726575
vt 0.636224 0.703873
vt 0.636224 0.703873
vt 0.636224 0.703873
vt 0.593850 0.726575
vt 0.673413 0.673413
vt 0.673413 0.673413
vt 0.636224 0.703873
vt 0.636224 0.703873
vt 0.673413 0.673413
vt 0.602315 0.747011
vt 0.552150 0.762176
vt 0.547835 0.740485
vt 0.547835 0.740485
vt 0.602315 0.747011
vt 0.500000 0.767363
vt 0.500000 0.745242
vt 0.547835 0.740485
vt 0.547835 0.740485
vt 0.552150 0.762176
vt 0.500000 0.767363
vt 0.500000 0.745243
vt 0.547835 0.740485
vt 0.547835 0.740485
vt 0.547835 0.740485
vt 0.500000 0.745242
vt 0.500000 0.745243
vt 0.593850 0.726575
vt 0.547835 0.740485
vt 0.547835 0.740485
vt 0.593850 0.726575
vt 0.500000 0.745243
vt 0.452165 0.740485
vt 0.452165 0.740485
vt 0.452165 0.740485
vt 0.500000 0.745242
vt 0.406150 0.726575
vt 0.406150 0.726575
vt 0.452165 0.740485
vt 0.452165 0.740485
vt 0.406150 0.726575
vt 0.363776 0.703873
vt 0.363776 0.703873
vt 0.363776 0.703873
vt 0.406150 0.726575
vt 0.406150 0.726575
vt 0.326587 0.673413
vt 0.326587 0.673413
vt 0.363776 0.703873
vt 0.363776 0.703873
vt 0.326587 0.673413
vt 0.296127 0.636224
vt 0.296127 0.636224
vt 0.296127 0.636224
vt 0.326587 0.673413
vt 0.326587 0.673413
vt 0.273425 0.593850
vt 0.273425 0.593850
vt 0.296127 0.636224
vt 0.296127 0.636224
vt 0.273425 0.593850
vt 0.259515 0.547835
vt 0.259515 0.547835
vt 0.259515 0.547835
vt 0.273425 0.593850
vt 0.273425 0.593850
vt 0.254758 0.500000
vt 0.254758 0.500000
vt 0.259515 0.547835
vt 0.259515 0.547835
vt 0.254758 0.500000
vt 0.259515 0.452165
vt 0.259515 0.452165
vt 0.259515 0.452165
vt 0.254758 0.500000
vt 0.254758 0.500000
vt 0.273426 0.406150
vt 0.273426 0.406150
vt 0.259515 0.452165
vt 0.259515 0.452165
vt 0.273426 0.406150
vt 0.296127 0.363776
vt 0.296127 0.363776
vt 0.296127 0.363776
vt 0.273426 0.406150
vt 0.273426 0.406150
vt 0.326587 0.326587
vt 0.326587 0.326587
vt 0.296127 0.363776
vt 0.296127 0.363776
vt 0.326587 0.326587
vt 0.406150 0.273426
vt 0.452165 0.259515
vt 0.452165 0.259515
vt 0.500000 0.254758
vt 0.500000 0.254758
vt 0.452165 0.259515
vt 0.452165 0.259515
vt 0.452165 0.259515
vt 0.500000 0.254758
vt 0.500000 0.254758
vt 0.547835 0.259515
vt 0.547835 0.259515
vt 0.547835 0.259515
vt 0.500000 0.254758
vt 0.500000 0.254758
vt 0.593850 0.273425
vt 0.593850 0.273425
vt 0.547835 0.259515
vt 0.547835 0.259515
vt 0.593850 0.273425
vt 0.593850 0.273425
vt 0.636224 0.296127
vt 0.636224 0.296127
vt 0.636224 0.296127
vt 0.593850 0.273425
vt 0.593850 0.273425
vt 0.673413 0.326587
vt 0.673413 0.326587
vt 0.636224 0.296127
vt 0.636224 0.296127
vt 0.673413 0.326587
vt 0.673413 0.326587
vt 0.703873 0.363776
vt 0.703873 0.363776
vt 0.703873 0.363776
vt 0.673413 0.326587
vt 0.673413 0.326587
vt 0.726575 0.406150
vt 0.726575 0.406150
vt 0.703873 0.363776
vt 0.703873 0.363776
vt 0.726575 0.406150
vt 0.726575 0.406150
vt 0.740485 0.452165
vt 0.740485 0.452165
vt 0.740485 0.452165
vt 0.726575 0.406150
vt 0.726575 0.406150
vt 0.745243 0.500000
vt 0.745242 0.500000
vt 0.740485 0.452165
vt 0.740485 0.452165
vt 0.745243 0.500000
vt 0.745243 0.500000
vt 0.740485 0.547835
vt 0.740485 0.547835
vt 0.740485 0.547835
vt 0.745242 0.500000
vt 0.745243 0.500000
vt 0.726575 0.593850
vt 0.726575 0.593850
vt 0.740485 0.547835
vt 0.740485 0.547835
vt 0.726575 0.593850
vt 0.726575 0.593850
vt 0.703873 0.636224
vt 0.703873 0.636224
vt 0.703873 0.636224
vt 0.726575 0.593850
vt 0.726575 0.593850
vt 0.673413 0.673413
vt 0.673413 0.673413
vt 0.703873 0.636224
vt 0.703873 0.636224
vt 0.673413 0.673413
vt 0.673413 0.673413
vt 0.636224 0.703873
vt 0.636224 0.703873
vt 0.636224 0.703873
vt 0.673413 0.673413
vt 0.673413 0.673413
vt 0.593850 0.726575
vt 0.593850 0.726575
vt 0.636224 0.703873
vt 0.636224 0.703873
vt 0.593850 0.726575
vt 0.593850 0.726575
vt 0.547835 0.740485
vt 0.547835 0.740485
vt 0.547835 0.740485
vt 0.593850 0.726575
vt 0.593850 0.726575
vt 0.500000 0.745243
vt 0.500000 0.745242
vt 0.547835 0.740485
vt 0.547835 0.740485
vt 0.500000 0.745243
vt 0.753241 0.909876
vt 0.575465 0.935778
vt 0.599449 0.947752
vt 0.599449 0.947752
vt 0.735800 0.912870
vt 0.753241 0.909876
vt 0.335295 0.897633
vt 0.467412 0.900758
vt 0.599449 0.947752
vt 0.599449 0.947752
vt 0.575465 0.935778
vt 0.335295 0.897633
vt 0.500000 0.930395
vt 0.625000 0.951848
vt 0.599449 0.947752
vt 0.599449 0.947752
vt 0.467412 0.900758
vt 0.500000 0.930395
vt 0.718750 0.913893
vt 0.735800 0.912870
vt 0.599449 0.947752
vt 0.599449 0.947752
vt 0.625000 0.951848
vt 0.718750 0.913893
vt 0.790807 0.898436
vt 0.538228 0.890017
vt 0.554615 0.916237
vt 0.554615 0.916237
vt 0.771466 0.904991
vt 0.790807 0.898436
vt 0.195665 0.804335
vt 0.265480 0.850984
vt 0.554615 0.916237
vt 0.554615 0.916237
vt 0.538228 0.890017
vt 0.195665 0.804335
vt 0.335295 0.897633
vt 0.575465 0.935778
vt 0.554615 0.916237
vt 0.554615 0.916237
vt 0.265480 0.850984
vt 0.335295 0.897633
vt 0.753241 0.909876
vt 0.771466 0.904991
vt 0.554615 0.916237
vt 0.554615 0.916237
vt 0.575465 0.935778
vt 0.753241 0.909876
vt 0.834054 0.881314
vt 0.523717 0.821531
vt 0.527633 0.858005
vt 0.527633 0.858005
vt 0.811596 0.890433
vt 0.834054 0.881314
vt 0.102367 0.664705
vt 0.149016 0.734520
vt 0.527633 0.858005
vt 0.527633 0.858005
vt 0.523717 0.821531
vt 0.102367 0.664705
vt 0.195665 0.804335
vt 0.538228 0.890017
vt 0.527633 0.858005
vt 0.527633 0.858005
vt 0.149016 0.734520
vt 0.195665 0.804335
vt 0.790807 0.898436
vt 0.811596 0.890433
vt 0.527633 0.858005
vt 0.527633 0.858005
vt 0.538228 0.890017
vt 0.790807 0.898436
vt 1.000000 0.981490
vt 0.476398 0.740745
vt 0.527368 0.781921
vt 0.527368 0.781921
vt 0.858404 0.871412
vt 1.000000 0.981490
vt 0.069605 0.500000
vt 0.085986 0.582353
vt 0.527368 0.781921
vt 0.527368 0.781921
vt 0.476398 0.740745
vt 0.069605 0.500000
vt 0.102367 0.664705
vt 0.523717 0.821531
vt 0.527368 0.781921
vt 0.527368 0.781921
vt 0.085986 0.582353
vt 0.102367 0.664705
vt 0.834054 0.881314
vt 0.858404 0.871412
vt 0.527368 0.781921
vt 0.527368 0.781921
vt 0.523717 0.821531
vt 0.834054 0.881314
vt 0.084054 0.840921
vt 0.148717 0.659960
vt 0.308618 0.699569
vt 0.308618 0.699569
vt 0.531250 0.981490
vt 0.084054 0.840921
vt 0.102367 0.335295
vt 0.085986 0.417647
vt 0.308618 0.699569
vt 0.308618 0.699569
vt 0.148717 0.659960
vt 0.102367 0.335295
vt 0.069605 0.500000
vt 0.476398 0.740745
vn 0.447295 0.871835 -0.199576
vn 0.447295 0.871835 -0.199576
vn 0.447295 0.871835 -0.199576
vn 0.642106 0.708957 -0.291685
vn 0.522689 0.764224 -0.377833
vn 0.422596 0.906308 -0.004370
vn 0.722647 0.672028 -0.161738
vn 0.642106 0.708957 -0.291685
vn 0.422596 0.906308 -0.004370
vn 0.752049 0.659062 -0.007776
vn 0.722647 0.672028 -0.161738
vn 0.422596 0.906308 -0.004370
vn 0.725837 0.672028 0.146761
vn 0.752049 0.659062 -0.007776
vn 0.422596 0.906308 -0.004370
vn 0.648000 0.708957 0.278345
vn 0.725837 0.672028 0.146761
vn 0.422596 0.906308 -0.004370
vn 0.530390 0.764224 0.366945
vn 0.648000 0.708957 0.278345
vn 0.422596 0.906308 -0.004370
vn 0.390911 0.829417 0.399070
vn 0.530390 0.764224 0.366945
vn 0.422596 0.906308 -0.004370
vn 0.250796 0.894608 0.369836
vn 0.390911 0.829417 0.399070
vn 0.422596 0.906308 -0.004370
vn 0.131379 0.949874 0.283687
vn 0.250796 0.894608 0.369836
vn 0.422596 0.906308 -0.004370
vn 0.050837 0.986803 0.153741
vn 0.131379 0.949874 0.283687
vn 0.422596 0.906308 -0.004370
vn 0.021434 0.999770 -0.000222
vn 0.050837 0.986803 0.153741
vn 0.422596 0.906308 -0.004370
vn 0.047647 0.986803 -0.154759
vn 0.021434 0.999770 -0.000222
vn 0.422596 0.906308 -0.004370
vn 0.125485 0.949874 -0.286343
vn 0.047647 0.986803 -0.154759
vn 0.422596 0.906308 -0.004370
vn 0.243095 0.894608 -0.374942
vn 0.125485 0.949874 -0.286343
vn 0.422596 0.906308 -0.004370
vn 0.382577 0.829414 -0.407071
vn 0.243095 0.894608 -0.374942
vn 0.422596 0.906308 -0.004370
vn 0.382577 0.829414 -0.407071
vn 0.522689 0.764224 -0.377833
vn 0.536210 0.513766 -0.669719
vn 0.536210 0.513766 -0.669719
vn 0.286339 0.630025 -0.721858
vn 0.382577 0.829414 -0.407071
vn 0.522689 0.764224 -0.377833
vn 0.642106 0.708957 -0.291685
vn 0.749174 0.415206 -0.516084
vn 0.749174 0.415206 -0.516084
vn 0.536210 0.513766 -0.669719
vn 0.522689 0.764224 -0.377833
vn 0.642106 0.708957 -0.291685
vn 0.722647 0.672028 -0.161738
vn 0.892808 0.349349 -0.284340
vn 0.892808 0.349349 -0.284340
vn 0.749174 0.415206 -0.516084
vn 0.642106 0.708957 -0.291685
vn 0.722647 0.672028 -0.161738
vn 0.752049 0.659062 -0.007776
vn 0.945242 0.326224 -0.009774
vn 0.945242 0.326224 -0.009774
vn 0.892808 0.349349 -0.284340
vn 0.722647 0.672028 -0.161738
vn 0.752049 0.659062 -0.007776
vn 0.725837 0.672028 0.146761
vn 0.898496 0.349349 0.265819
vn 0.898496 0.349349 0.265819
vn 0.945242 0.326224 -0.009774
vn 0.752049 0.659062 -0.007776
vn 0.725837 0.672028 0.146761
vn 0.648000 0.708957 0.278345
vn 0.759685 0.415206 0.500482
vn 0.759685 0.415206 0.500482
vn 0.898496 0.349349 0.265819
vn 0.725837 0.672028 0.146761
vn 0.648000 0.708957 0.278345
vn 0.530390 0.764224 0.366945
vn 0.549944 0.513766 0.658488
vn 0.549944 0.513766 0.658488
vn 0.759685 0.415206 0.500482
vn 0.648000 0.708957 0.278345
vn 0.530390 0.764224 0.366945
vn 0.390911 0.829417 0.399070
vn 0.301204 0.630025 0.715783
vn 0.301204 0.630025 0.715783
vn 0.549944 0.513766 0.658488
vn 0.530390 0.764224 0.366945
vn 0.390911 0.829417 0.399070
vn 0.250796 0.894608 0.369836
vn 0.051329 0.746286 0.663644
vn 0.051329 0.746286 0.663644
vn 0.301204 0.630025 0.715783
vn 0.390911 0.829417 0.399070
vn 0.250796 0.894608 0.369836
vn 0.131379 0.949874 0.283687
vn -0.161635 0.844847 0.510007
vn -0.161635 0.844847 0.510007
vn 0.051329 0.746286 0.663644
vn 0.250796 0.894608 0.369836
vn 0.131379 0.949874 0.283687
vn 0.050837 0.986803 0.153741
vn -0.305269 0.910702 0.278266
vn -0.305269 0.910702 0.278266
vn -0.161635 0.844847 0.510007
vn 0.131379 0.949874 0.283687
vn 0.050837 0.986803 0.153741
vn 0.021434 0.999770 -0.000222
vn -0.357702 0.933829 0.003699
vn -0.357702 0.933829 0.003699
vn -0.305269 0.910702 0.278266
vn 0.050837 0.986803 0.153741
vn 0.021434 0.999770 -0.000222
vn 0.047647 0.986803 -0.154759
vn -0.310954 0.910703 -0.271897
vn -0.310954 0.910703 -0.271897
vn -0.357702 0.933829 0.003699
vn 0.021434 0.999770 -0.000222
vn 0.047647 0.986803 -0.154759
vn 0.125485 0.949874 -0.286343
vn -0.172147 0.844846 -0.506558
vn -0.172147 0.844846 -0.506558
vn -0.310954 0.910703 -0.271897
vn 0.047647 0.986803 -0.154759
vn 0.125485 0.949874 -0.286343
vn 0.243095 0.894608 -0.374942
vn 0.037596 0.746286 -0.664563
vn 0.037596 0.746286 -0.664563
vn -0.172147 0.844846 -0.506558
vn 0.125485 0.949874 -0.286343
vn 0.243095 0.894608 -0.374942
vn 0.382577 0.829414 -0.407071
vn 0.286339 0.630025 -0.721858
vn 0.286339 0.630025 -0.721858
vn 0.037596 0.746286 -0.664563
vn 0.243095 0.894608 -0.374942
vn 0.286339 0.630025 -0.721858
vn 0.536210 0.513766 -0.669719
vn 0.470938 0.189323 -0.861611
vn 0.470938 0.189323 -0.861611
vn 0.148619 0.339291 -0.928867
vn 0.286339 0.630025 -0.721858
vn 0.536210 0.513766 -0.669719
vn 0.749174 0.415206 -0.516084
vn 0.745647 0.062186 -0.663433
vn 0.745647 0.062186 -0.663433
vn 0.470938 0.189323 -0.861611
vn 0.536210 0.513766 -0.669719
vn 0.749174 0.415206 -0.516084
vn 0.892808 0.349349 -0.284340
vn 0.930925 -0.022763 -0.364500
vn 0.930925 -0.022763 -0.364500
vn 0.745647 0.062186 -0.663433
vn 0.749174 0.415206 -0.516084
vn 0.892808 0.349349 -0.284340
vn 0.945242 0.326224 -0.009774
vn 0.998563 -0.052593 -0.010325
vn 0.998563 -0.052593 -0.010325
vn 0.930925 -0.022763 -0.364500
vn 0.892808 0.349349 -0.284340
vn 0.945242 0.326224 -0.009774
vn 0.898496 0.349349 0.265819
vn 0.938263 -0.022763 0.345173
vn 0.938263 -0.022763 0.345173
vn 0.998563 -0.052593 -0.010325
vn 0.945242 0.326224 -0.009774
vn 0.898496 0.349349 0.265819
vn 0.759685 0.415206 0.500482
vn 0.759207 0.062186 0.647871
vn 0.759207 0.062186 0.647871
vn 0.938263 -0.022763 0.345173
vn 0.898496 0.349349 0.265819
vn 0.759685 0.415206 0.500482
vn 0.549944 0.513766 0.658488
vn 0.488655 0.189323 0.851688
vn 0.488655 0.189323 0.851688
vn 0.759207 0.062186 0.647871
vn 0.759685 0.415206 0.500482
vn 0.549944 0.513766 0.658488
vn 0.301204 0.630025 0.715783
vn 0.167794 0.339291 0.925596
vn 0.167794 0.339291 0.925596
vn 0.488655 0.189323 0.851688
vn 0.549944 0.513766 0.658488
vn 0.301204 0.630025 0.715783
vn 0.051329 0.746286 0.663644
vn -0.154529 0.489262 0.858338
vn -0.154529 0.489262 0.858338
vn 0.167794 0.339291 0.925596
vn 0.301204 0.630025 0.715783
vn 0.051329 0.746286 0.663644
vn -0.161635 0.844847 0.510007
vn -0.429237 0.616397 0.660159
vn -0.429237 0.616397 0.660159
vn -0.154529 0.489262 0.858338
vn 0.051329 0.746286 0.663644
vn -0.161635 0.844847 0.510007
vn -0.305269 0.910702 0.278266
vn -0.614514 0.701347 0.361227
vn -0.614514 0.701347 0.361227
vn -0.429237 0.616397 0.660159
vn -0.161635 0.844847 0.510007
vn -0.305269 0.910702 0.278266
vn -0.357702 0.933829 0.003699
vn -0.682150 0.731178 0.007053
vn -0.682150 0.731178 0.007053
vn -0.614514 0.701347 0.361227
vn -0.305269 0.910702 0.278266
vn -0.357702 0.933829 0.003699
vn -0.310954 0.910703 -0.271897
vn -0.621852 0.701347 -0.348443
vn -0.621852 0.701347 -0.348443
vn -0.682150 0.731178 0.007053
vn -0.357702 0.933829 0.003699
vn -0.310954 0.910703 -0.271897
vn -0.172147 0.844846 -0.506558
vn -0.442795 0.616395 -0.651145
vn -0.442795 0.616395 -0.651145
vn -0.621852 0.701347 -0.348443
vn -0.310954 0.910703 -0.271897
vn -0.172147 0.844846 -0.506558
vn 0.037596 0.746286 -0.664563
vn -0.172243 0.489258 -0.854962
vn -0.172243 0.489258 -0.854962
vn -0.442795 0.616395 -0.651145
vn -0.172147 0.844846 -0.506558
vn 0.037596 0.746286 -0.664563
vn 0.286339 0.630025 -0.721858
vn 0.148619 0.339291 -0.928867
vn 0.148619 0.339291 -0.928867
vn -0.172243 0.489258 -0.854962
vn 0.037596 0.746286 -0.664563
vn 0.148619 0.339291 -0.928867
vn 0.470938 0.189323 -0.861611
vn 0.413221 0.018190 -0.910449
vn 0.413221 0.018190 -0.910449
vn 0.072304 0.176811 -0.981586
vn 0.148619 0.339291 -0.928867
vn 0.470938 0.189323 -0.861611
vn 0.745647 0.062186 -0.663433
vn 0.703783 -0.116283 -0.700834
vn 0.703783 -0.116283 -0.700834
vn 0.413221 0.018190 -0.910449
vn 0.470938 0.189323 -0.861611
vn 0.745647 0.062186 -0.663433
vn 0.930925 -0.022763 -0.364500
vn 0.899750 -0.206135 -0.384655
vn 0.899750 -0.206135 -0.384655
vn 0.703783 -0.116283 -0.700834
vn 0.745647 0.062186 -0.663433
vn 0.930925 -0.022763 -0.364500
vn 0.998563 -0.052593 -0.010325
vn 0.971290 -0.237686 -0.010043
vn 0.971290 -0.237686 -0.010043
vn 0.899750 -0.206135 -0.384655
vn 0.930925 -0.022763 -0.364500
vn 0.998563 -0.052593 -0.010325
vn 0.938263 -0.022763 0.345173
vn 0.907511 -0.206135 0.365968
vn 0.907511 -0.206135 0.365968
vn 0.971290 -0.237686 -0.010043
vn 0.998563 -0.052593 -0.010325
vn 0.938263 -0.022763 0.345173
vn 0.759207 0.062186 0.647871
vn 0.718123 -0.116283 0.686132
vn 0.718123 -0.116283 0.686132
vn 0.907511 -0.206135 0.365968
vn 0.938263 -0.022763 0.345173
vn 0.759207 0.062186 0.647871
vn 0.488655 0.189323 0.851688
vn 0.431958 0.018190 0.901710
vn 0.431958 0.018190 0.901710
vn 0.718123 -0.116283 0.686132
vn 0.759207 0.062186 0.647871
vn 0.488655 0.189323 0.851688
vn 0.167794 0.339291 0.925596
vn 0.092585 0.176811 0.979881
vn 0.092585 0.176811 0.979881
vn 0.431958 0.018190 0.901710
vn 0.488655 0.189323 0.851688
vn 0.167794 0.339291 0.925596
vn -0.154529 0.489262 0.858338
vn -0.248333 0.335433 0.908744
vn -0.248333 0.335433 0.908744
vn 0.092585 0.176811 0.979881
vn 0.167794 0.339291 0.925596
vn -0.154529 0.489262 0.858338
vn -0.429237 0.616397 0.660159
vn -0.538895 0.469906 0.699128
vn -0.538895 0.469906 0.699128
vn -0.248333 0.335433 0.908744
vn -0.154529 0.489262 0.858338
vn -0.429237 0.616397 0.660159
vn -0.614514 0.701347 0.361227
vn -0.734862 0.559757 0.382949
vn -0.734862 0.559757 0.382949
vn -0.538895 0.469906 0.699128
vn -0.429237 0.616397 0.660159
vn -0.614514 0.701347 0.361227
vn -0.682150 0.731178 0.007053
vn -0.806402 0.591309 0.008338
vn -0.806402 0.591309 0.008338
vn -0.734862 0.559757 0.382949
vn -0.614514 0.701347 0.361227
vn -0.682150 0.731178 0.007053
vn -0.621852 0.701347 -0.348443
vn -0.742621 0.559759 -0.367673
vn -0.742621 0.559759 -0.367673
vn -0.806402 0.591309 0.008338
vn -0.682150 0.731178 0.007053
vn -0.621852 0.701347 -0.348443
vn -0.442795 0.616395 -0.651145
vn -0.553234 0.469907 -0.687837
vn -0.553234 0.469907 -0.687837
vn -0.742621 0.559759 -0.367673
vn -0.621852 0.701347 -0.348443
vn -0.442795 0.616395 -0.651145
vn -0.172243 0.489258 -0.854962
vn -0.267071 0.335433 -0.903415
vn -0.267071 0.335433 -0.903415
vn -0.553234 0.469907 -0.687837
vn -0.442795 0.616395 -0.651145
vn -0.172243 0.489258 -0.854962
vn 0.148619 0.339291 -0.928867
vn 0.072304 0.176811 -0.981586
vn 0.072304 0.176811 -0.981586
vn -0.267071 0.335433 -0.903415
vn -0.172243 0.489258 -0.854962
s off
g polySurface1317 polySurface1313
usemtl prueba_segundo_piso:lambert16SG
f 3/1/1 2/2/2 1/3/3
f 4/4/4 3/5/5 1/6/6
f 5/7/7 4/8/8 1/9/9
f 6/10/10 5/11/11 1/12/12
f 7/13/13 6/14/14 1/15/15
f 8/16/16 7/17/17 1/9/18
f 9/18/19 8/19/20 1/20/21
f 10/21/22 9/22/23 1/15/24
f 11/23/25 10/24/26 1/25/27
f 12/26/28 11/27/29 1/9/30
f 13/28/31 12/29/32 1/30/33
f 14/31/34 13/32/35 1/33/36
f 15/34/37 14/35/38 1/36/39
f 16/37/40 15/38/41 1/39/42
f 17/40/43 16/41/44 1/9/45
f 2/42/46 17/43/47 1/36/48
f 2/44/49 3/45/50 19/46/51
f 19/47/52 18/48/53 2/49/54
f 3/45/55 4/50/56 20/51/57
f 20/52/58 19/47/59 3/53/60
f 4/50/61 5/54/62 21/55/63
f 21/56/64 20/57/65 4/58/66
f 5/59/67 6/60/68 22/61/69
f 22/62/70 21/56/71 5/63/72
f 6/60/73 7/64/74 23/65/75
f 23/66/76 22/67/77 6/68/78
f 7/69/79 8/70/80 24/71/81
f 24/72/82 23/66/83 7/73/84
f 8/70/85 9/74/86 25/75/87
f 25/76/88 24/77/89 8/78/90
f 9/79/91 10/80/92 26/81/93
f 26/82/94 25/76/95 9/83/96
f 10/80/97 11/84/98 27/85/99
f 27/86/100 26/87/101 10/88/102
f 11/89/103 12/90/104 28/91/105
f 28/92/106 27/86/107 11/93/108
f 12/90/109 13/94/110 29/95/111
f 29/96/112 28/97/113 12/98/114
f 13/99/115 14/100/116 30/101/117
f 30/102/118 29/96/119 13/103/120
f 14/104/121 15/105/122 31/106/123
f 31/107/124 30/108/125 14/109/126
f 15/110/127 16/111/128 32/112/129
f 32/113/130 31/114/131 15/115/132
f 16/116/133 17/117/134 33/118/135
f 33/119/136 32/120/137 16/121/138
f 17/117/139 2/122/140 18/123/141
f 18/124/142 33/125/143 17/126/144
f 18/127/145 19/128/146 35/129/147
f 35/130/148 34/131/149 18/132/150
f 19/128/151 20/133/152 36/134/153
f 36/135/154 35/136/155 19/137/156
f 20/138/157 21/139/158 37/140/159
f 37/141/160 36/142/161 20/143/162
f 21/139/163 22/144/164 38/145/165
f 38/146/166 37/147/167 21/148/168
f 22/149/169 23/150/170 39/151/171
f 39/152/172 38/153/173 22/154/174
f 23/150/175 24/155/176 40/156/177
f 40/157/178 39/158/179 23/159/180
f 24/160/181 25/161/182 41/162/183
f 41/163/184 40/164/185 24/165/186
f 25/161/187 26/166/188 42/167/189
f 42/168/190 41/169/191 25/170/192
f 26/171/193 27/172/194 43/173/195
f 43/174/196 42/175/197 26/176/198
f 27/172/199 28/177/200 44/178/201
f 44/179/202 43/180/203 27/181/204
f 28/182/205 29/183/206 45/184/207
f 45/185/208 44/186/209 28/187/210
f 29/183/211 30/188/212 46/189/213
f 46/190/214 45/191/215 29/192/216
f 30/193/217 31/194/218 47/195/219
f 47/196/220 46/197/221 30/198/222
f 31/194/223 32/199/224 48/200/225
f 48/201/226 47/202/227 31/203/228
f 32/204/229 33/205/230 49/206/231
f 49/207/232 48/208/233 32/209/234
f 33/210/235 18/211/236 34/212/237
f 34/213/238 49/214/239 33/215/240
f 34/216/241 35/217/242 51/218/243
f 51/219/244 50/220/245 34/221/246
f 35/222/247 36/223/248 52/224/249
f 52/225/250 51/226/251 35/227/252
f 36/228/253 37/229/254 53/230/255
f 53/231/256 52/232/257 36/233/258
f 37/234/259 38/235/260 54/236/261
f 54/237/262 53/238/263 37/239/264
f 38/240/265 39/241/266 55/242/267
f 55/243/268 54/244/269 38/245/270
f 39/246/271 40/247/272 56/248/273
f 56/249/274 55/250/275 39/251/276
f 40/252/277 41/253/278 57/254/279
f 57/255/280 56/256/281 40/257/282
f 41/258/283 42/259/284 58/260/285
f 58/261/286 57/262/287 41/263/288
f 42/264/289 43/265/290 59/266/291
f 59/267/292 58/268/293 42/269/294
f 43/270/295 44/271/296 60/272/297
f 60/273/298 59/274/299 43/275/300
f 44/276/301 45/277/302 61/278/303
f 61/279/304 60/280/305 44/281/306
f 45/282/307 46/283/308 62/284/309
f 62/285/310 61/286/311 45/287/312
f 46/288/313 47/289/314 63/290/315
f 63/291/316 62/292/317 46/293/318
f 47/294/319 48/295/320 64/296/321
f 64/297/322 63/298/323 47/299/324
f 48/300/325 49/301/326 65/302/327
f 65/303/328 64/304/329 48/305/330
f 49/306/331 34/307/332 50/308/333
f 50/309/334 65/310/335 49/311/336
